<?xml version="1.0" encoding="UTF-8" standalone="no"?>
<!-- Created with Inkscape (http://www.inkscape.org/) -->

<svg
   width="100"
   height="100"
   viewBox="0 0 26.458333 26.458333"
   version="1.1"
   id="svg1"
   xml:space="preserve"
   inkscape:version="1.4 (86a8ad7, 2024-10-11)"
   sodipodi:docname="bilibili.svg"
   xmlns:inkscape="http://www.inkscape.org/namespaces/inkscape"
   xmlns:sodipodi="http://sodipodi.sourceforge.net/DTD/sodipodi-0.dtd"
   xmlns="http://www.w3.org/2000/svg"
   xmlns:svg="http://www.w3.org/2000/svg"><sodipodi:namedview
     id="namedview1"
     pagecolor="#ffffff"
     bordercolor="#000000"
     borderopacity="0.25"
     inkscape:showpageshadow="2"
     inkscape:pageopacity="0.0"
     inkscape:pagecheckerboard="0"
     inkscape:deskcolor="#d1d1d1"
     inkscape:document-units="mm"
     showguides="false"
     inkscape:zoom="3.8551605"
     inkscape:cx="7.1332958"
     inkscape:cy="43.967042"
     inkscape:window-width="1920"
     inkscape:window-height="967"
     inkscape:window-x="-8"
     inkscape:window-y="42"
     inkscape:window-maximized="1"
     inkscape:current-layer="layer1" /><defs
     id="defs1" /><ellipse
     style="fill:#e777a1;fill-opacity:1;stroke:none;stroke-width:2.45613;stroke-opacity:1"
     id="path8"
     cx="13.34872"
     cy="13.280089"
     rx="13.211458"
     ry="13.142827" /><g
     inkscape:label="图层 1"
     inkscape:groupmode="layer"
     id="layer1"><g
       id="g8"
       transform="matrix(0.82712292,0,0,0.82712292,2.4745862,2.1731743)"><path
         style="fill:none;fill-opacity:0.376682;stroke:#ffffff;stroke-width:2.45613;stroke-opacity:1"
         d="m 13.278228,7.1376189 -6.6025297,0.061057 c 0,0 -2.7846329,0.030117 -2.7638499,4.0908021 0.027104,5.295632 0.1679709,7.784044 0.1679709,7.784044 0,0 0.3540892,2.206776 3.6399993,2.107152 3.7158434,-0.03053 11.3317854,0.03054 11.3317854,0.03054 0,0 3.235467,0.462003 3.562295,-3.052838 -1e-6,-3.724462 -0.09213,-5.46458 -0.06141,-8.2121346 -0.3071,-2.7475623 -2.641018,-2.7780908 -2.641018,-2.7780908 z"
         id="path2"
         sodipodi:nodetypes="ccsccccccc" /><path
         style="fill:#ffffff;fill-opacity:1;stroke:none;stroke-width:2.45613;stroke-opacity:1"
         d="m 6.5514706,12.253676 0.3761028,1.674265 4.3312496,-0.873529 -0.339706,-1.65 z"
         id="path3" /><path
         style="fill:#ffffff;fill-opacity:1;stroke:none;stroke-width:2.45613;stroke-opacity:1"
         d="m 15.390491,13.057039 4.358065,0.840729 0.291682,-1.629985 -4.272277,-0.84073 z"
         id="path4" /><path
         style="fill:#ffffff;fill-opacity:1;stroke:none;stroke-width:2.45613;stroke-opacity:1"
         d="m 10.500536,16.76311 c 0,0 1.175305,1.998877 2.80529,0.428943 0.686309,0.952255 2.170454,0.746362 2.788132,-0.45468 -0.506153,-0.308839 -0.712046,-0.446101 -0.712046,-0.446101 0,0 -1.038043,1.698617 -2.067507,-0.557626 -0.214472,0.351734 -1.098095,2.110401 -2.084666,0.557626 -0.557626,0.30026 -0.729203,0.471838 -0.729203,0.471838 z"
         id="path5"
         sodipodi:nodetypes="ccccccc" /><path
         style="fill:#ffffff;fill-opacity:1;stroke:none;stroke-width:2.45613;stroke-opacity:1"
         d="m 9.239442,3.6031249 c 0,0 -0.4314005,-0.3557626 -0.8235715,-0.017158 C 7.938411,3.9982105 8.2614507,4.5296433 8.2614507,4.5296433 L 9.6941218,5.9623144 11.624368,5.927999 Z"
         id="path6"
         sodipodi:nodetypes="cscccc" /><path
         style="fill:#ffffff;fill-opacity:1;stroke:none;stroke-width:2.45613;stroke-opacity:1"
         d="m 17.4087,3.6369779 c 0,0 0.4314,-0.3557626 0.823571,-0.017158 0.47746,0.4122436 0.15442,0.9436764 0.15442,0.9436764 L 16.95402,5.9961674 15.023774,5.9618524 Z"
         id="path6-7"
         sodipodi:nodetypes="cscccc" /><ellipse
         style="fill:#ffffff;fill-opacity:1;stroke:none;stroke-width:2.45613;stroke-opacity:1"
         id="path7"
         cx="8.0941629"
         cy="22.275032"
         rx="1.1624367"
         ry="0.98228055" /><ellipse
         style="fill:#ffffff;fill-opacity:1;stroke:none;stroke-width:2.45613;stroke-opacity:1"
         id="path7-2"
         cx="18.527266"
         cy="22.307158"
         rx="1.1624367"
         ry="0.98228055" /></g></g></svg>
