<?xml version="1.0" encoding="UTF-8" standalone="no"?>
<!-- Created with Inkscape (http://www.inkscape.org/) -->

<svg
   width="100"
   height="100"
   viewBox="0 0 26.458333 26.458333"
   version="1.1"
   id="svg1"
   xml:space="preserve"
   inkscape:version="1.4 (86a8ad7, 2024-10-11)"
   sodipodi:docname="lofter.svg"
   xmlns:inkscape="http://www.inkscape.org/namespaces/inkscape"
   xmlns:sodipodi="http://sodipodi.sourceforge.net/DTD/sodipodi-0.dtd"
   xmlns="http://www.w3.org/2000/svg"
   xmlns:svg="http://www.w3.org/2000/svg"><sodipodi:namedview
     id="namedview1"
     pagecolor="#ffffff"
     bordercolor="#000000"
     borderopacity="0.25"
     inkscape:showpageshadow="2"
     inkscape:pageopacity="0.0"
     inkscape:pagecheckerboard="0"
     inkscape:deskcolor="#d1d1d1"
     inkscape:document-units="mm"
     inkscape:zoom="1.363005"
     inkscape:cx="-103.08106"
     inkscape:cy="10.638258"
     inkscape:window-width="1920"
     inkscape:window-height="967"
     inkscape:window-x="-8"
     inkscape:window-y="42"
     inkscape:window-maximized="1"
     inkscape:current-layer="layer1" /><defs
     id="defs1" /><g
     inkscape:label="图层 1"
     inkscape:groupmode="layer"
     id="layer1"><circle
       style="fill:#009b95;fill-opacity:1;stroke-width:2.45613"
       id="path2"
       cx="13.280089"
       cy="13.280089"
       r="13.142827" /><path
       style="fill:#ffffff;fill-opacity:1;stroke-width:2.45613"
       d="m 12.372245,15.104192 0.01716,-7.4979317 c 0,0 -0.06863,-2.9682887 -3.0883934,-3.0026041 C 7.9627061,4.6551295 7.911233,6.1650104 7.911233,6.1650104 l 0.051473,8.4416076 c 0,0 0.2058929,3.380074 3.6889139,3.41439 3.483021,0.03432 4.049226,0.01716 4.049226,0.01716 0,0 1.544197,0.01716 1.561354,1.28683 -0.05147,0.360313 -0.977991,0.428943 -0.977991,0.428943 l -1.801562,0.01716 c 0,0 -1.150098,-0.155892 -1.621406,-0.617678 -0.769892,-0.31817 -1.58873,-0.350689 -1.312567,0.308839 0.464505,0.678255 1.544196,1.561354 2.762395,1.612827 1.2182,0.05147 3.122709,0.03432 3.122709,0.03432 0,0 1.492723,-0.325997 1.389777,-1.801563 -0.102947,-1.475565 -1.389778,-2.590818 -3.019763,-2.659449 -1.629985,-0.06863 -4.787009,-0.08579 -4.787009,-0.08579 0,0 -1.6299854,-0.06863 -1.6986164,-2.213348 -0.06863,-2.144717 -0.05147,-7.89256 -0.05147,-7.89256 0,0 -0.1715772,-0.53189 0.651994,-0.53189 0.8235724,0 1.1324114,1.509881 1.1324114,1.509881 l 0.05147,6.9832 c 0,0 0.360313,0.90936 1.046622,0.892202 0.291682,-0.120106 0.223051,-0.205893 0.223051,-0.205893 z"
       id="path1"
       sodipodi:nodetypes="cccccsccccccscsscscsccccc" /></g></svg>
